<mxfile host="Electron" modified="2024-01-08T22:33:45.024Z" agent="Mozilla/5.0 (Windows NT 10.0; Win64; x64) AppleWebKit/537.36 (KHTML, like Gecko) draw.io/22.1.16 Chrome/120.0.6099.109 Electron/28.1.0 Safari/537.36" etag="xYT6SvMS3pS2mPLtPjfz" version="22.1.16" type="device">
  <diagram name="Страница — 1" id="I9TuS1bsuKh0CnBnGFWM">
    <mxGraphModel dx="1098" dy="988" grid="1" gridSize="10" guides="1" tooltips="1" connect="1" arrows="1" fold="1" page="1" pageScale="1" pageWidth="827" pageHeight="1169" math="0" shadow="0">
      <root>
        <mxCell id="0" />
        <mxCell id="1" parent="0" />
        <mxCell id="hfUVvMIx9qbIe7xffdkc-75" value="" style="rounded=1;whiteSpace=wrap;html=1;" vertex="1" parent="1">
          <mxGeometry x="27.5" y="679" width="892.5" height="231" as="geometry" />
        </mxCell>
        <mxCell id="hfUVvMIx9qbIe7xffdkc-74" value="" style="rounded=1;whiteSpace=wrap;html=1;" vertex="1" parent="1">
          <mxGeometry x="37" y="380" width="752.5" height="210" as="geometry" />
        </mxCell>
        <mxCell id="hfUVvMIx9qbIe7xffdkc-73" value="" style="rounded=1;whiteSpace=wrap;html=1;" vertex="1" parent="1">
          <mxGeometry x="20" y="100" width="430" height="200" as="geometry" />
        </mxCell>
        <mxCell id="hfUVvMIx9qbIe7xffdkc-1" value="Actor" style="shape=umlActor;verticalLabelPosition=bottom;verticalAlign=top;html=1;outlineConnect=0;" vertex="1" parent="1">
          <mxGeometry x="59.5" y="450" width="30" height="60" as="geometry" />
        </mxCell>
        <mxCell id="hfUVvMIx9qbIe7xffdkc-2" value="" style="rounded=1;whiteSpace=wrap;html=1;dashed=1;" vertex="1" parent="1">
          <mxGeometry x="249.5" y="390" width="310" height="190" as="geometry" />
        </mxCell>
        <mxCell id="hfUVvMIx9qbIe7xffdkc-4" value="" style="aspect=fixed;sketch=0;html=1;dashed=0;whitespace=wrap;fillColor=#2875E2;strokeColor=#ffffff;points=[[0.005,0.63,0],[0.1,0.2,0],[0.9,0.2,0],[0.5,0,0],[0.995,0.63,0],[0.72,0.99,0],[0.5,1,0],[0.28,0.99,0]];shape=mxgraph.kubernetes.icon2;prIcon=pod" vertex="1" parent="1">
          <mxGeometry x="489.5" y="450" width="50" height="48" as="geometry" />
        </mxCell>
        <mxCell id="hfUVvMIx9qbIe7xffdkc-5" value="" style="aspect=fixed;sketch=0;html=1;dashed=0;whitespace=wrap;fillColor=#2875E2;strokeColor=#ffffff;points=[[0.005,0.63,0],[0.1,0.2,0],[0.9,0.2,0],[0.5,0,0],[0.995,0.63,0],[0.72,0.99,0],[0.5,1,0],[0.28,0.99,0]];shape=mxgraph.kubernetes.icon2;prIcon=svc" vertex="1" parent="1">
          <mxGeometry x="279.5" y="450" width="50" height="48" as="geometry" />
        </mxCell>
        <mxCell id="hfUVvMIx9qbIe7xffdkc-6" value="" style="aspect=fixed;sketch=0;html=1;dashed=0;whitespace=wrap;fillColor=#2875E2;strokeColor=#ffffff;points=[[0.005,0.63,0],[0.1,0.2,0],[0.9,0.2,0],[0.5,0,0],[0.995,0.63,0],[0.72,0.99,0],[0.5,1,0],[0.28,0.99,0]];shape=mxgraph.kubernetes.icon2;prIcon=ing" vertex="1" parent="1">
          <mxGeometry x="169.5" y="450" width="50" height="48" as="geometry" />
        </mxCell>
        <mxCell id="hfUVvMIx9qbIe7xffdkc-9" value="" style="verticalLabelPosition=bottom;html=1;verticalAlign=top;align=center;strokeColor=none;fillColor=#00BEF2;shape=mxgraph.azure.queue_generic;pointerEvents=1;" vertex="1" parent="1">
          <mxGeometry x="356.25" y="460" width="96.5" height="40" as="geometry" />
        </mxCell>
        <mxCell id="hfUVvMIx9qbIe7xffdkc-10" value="" style="aspect=fixed;sketch=0;html=1;dashed=0;whitespace=wrap;fillColor=#2875E2;strokeColor=#ffffff;points=[[0.005,0.63,0],[0.1,0.2,0],[0.9,0.2,0],[0.5,0,0],[0.995,0.63,0],[0.72,0.99,0],[0.5,1,0],[0.28,0.99,0]];shape=mxgraph.kubernetes.icon2;kubernetesLabel=1;prIcon=hpa" vertex="1" parent="1">
          <mxGeometry x="489.5" y="522" width="50" height="48" as="geometry" />
        </mxCell>
        <mxCell id="hfUVvMIx9qbIe7xffdkc-11" style="edgeStyle=orthogonalEdgeStyle;rounded=0;orthogonalLoop=1;jettySize=auto;html=1;exitX=0.5;exitY=0;exitDx=0;exitDy=0;exitPerimeter=0;entryX=0.5;entryY=1;entryDx=0;entryDy=0;entryPerimeter=0;" edge="1" parent="1" source="hfUVvMIx9qbIe7xffdkc-10" target="hfUVvMIx9qbIe7xffdkc-4">
          <mxGeometry relative="1" as="geometry" />
        </mxCell>
        <mxCell id="hfUVvMIx9qbIe7xffdkc-12" style="edgeStyle=orthogonalEdgeStyle;rounded=0;orthogonalLoop=1;jettySize=auto;html=1;entryX=0.5;entryY=1;entryDx=0;entryDy=0;entryPerimeter=0;" edge="1" parent="1" source="hfUVvMIx9qbIe7xffdkc-10" target="hfUVvMIx9qbIe7xffdkc-9">
          <mxGeometry relative="1" as="geometry" />
        </mxCell>
        <mxCell id="hfUVvMIx9qbIe7xffdkc-13" value="ingress" style="text;html=1;strokeColor=none;fillColor=none;align=center;verticalAlign=middle;whiteSpace=wrap;rounded=0;" vertex="1" parent="1">
          <mxGeometry x="164.5" y="500" width="60" height="30" as="geometry" />
        </mxCell>
        <mxCell id="hfUVvMIx9qbIe7xffdkc-15" style="edgeStyle=orthogonalEdgeStyle;rounded=0;orthogonalLoop=1;jettySize=auto;html=1;entryX=0.005;entryY=0.63;entryDx=0;entryDy=0;entryPerimeter=0;" edge="1" parent="1" source="hfUVvMIx9qbIe7xffdkc-1" target="hfUVvMIx9qbIe7xffdkc-6">
          <mxGeometry relative="1" as="geometry" />
        </mxCell>
        <mxCell id="hfUVvMIx9qbIe7xffdkc-16" style="edgeStyle=orthogonalEdgeStyle;rounded=0;orthogonalLoop=1;jettySize=auto;html=1;exitX=0.995;exitY=0.63;exitDx=0;exitDy=0;exitPerimeter=0;entryX=0.005;entryY=0.63;entryDx=0;entryDy=0;entryPerimeter=0;" edge="1" parent="1" source="hfUVvMIx9qbIe7xffdkc-6" target="hfUVvMIx9qbIe7xffdkc-5">
          <mxGeometry relative="1" as="geometry" />
        </mxCell>
        <mxCell id="hfUVvMIx9qbIe7xffdkc-17" value="LB" style="text;html=1;strokeColor=none;fillColor=none;align=center;verticalAlign=middle;whiteSpace=wrap;rounded=0;" vertex="1" parent="1">
          <mxGeometry x="274.5" y="498" width="60" height="30" as="geometry" />
        </mxCell>
        <mxCell id="hfUVvMIx9qbIe7xffdkc-18" value="queue" style="text;html=1;strokeColor=none;fillColor=none;align=center;verticalAlign=middle;whiteSpace=wrap;rounded=0;" vertex="1" parent="1">
          <mxGeometry x="374.5" y="424" width="60" height="30" as="geometry" />
        </mxCell>
        <mxCell id="hfUVvMIx9qbIe7xffdkc-19" style="edgeStyle=orthogonalEdgeStyle;rounded=0;orthogonalLoop=1;jettySize=auto;html=1;exitX=0.995;exitY=0.63;exitDx=0;exitDy=0;exitPerimeter=0;entryX=0;entryY=0.5;entryDx=0;entryDy=0;entryPerimeter=0;" edge="1" parent="1" source="hfUVvMIx9qbIe7xffdkc-5" target="hfUVvMIx9qbIe7xffdkc-9">
          <mxGeometry relative="1" as="geometry" />
        </mxCell>
        <mxCell id="hfUVvMIx9qbIe7xffdkc-21" style="edgeStyle=orthogonalEdgeStyle;rounded=0;orthogonalLoop=1;jettySize=auto;html=1;exitX=1;exitY=0.51;exitDx=0;exitDy=0;exitPerimeter=0;entryX=0.005;entryY=0.63;entryDx=0;entryDy=0;entryPerimeter=0;" edge="1" parent="1" source="hfUVvMIx9qbIe7xffdkc-9" target="hfUVvMIx9qbIe7xffdkc-4">
          <mxGeometry relative="1" as="geometry" />
        </mxCell>
        <mxCell id="hfUVvMIx9qbIe7xffdkc-23" value="&lt;h1&gt;&lt;font style=&quot;font-size: 14px;&quot;&gt;HPA&lt;/font&gt;&lt;/h1&gt;&lt;p&gt;Будем создавать больше реплик, если в очереди будет больше заданного порогового значения, чтобы обеспечить SLO&lt;br&gt;&lt;/p&gt;" style="text;html=1;strokeColor=none;fillColor=none;spacing=5;spacingTop=-20;whiteSpace=wrap;overflow=hidden;rounded=0;" vertex="1" parent="1">
          <mxGeometry x="569.5" y="414" width="190" height="132" as="geometry" />
        </mxCell>
        <mxCell id="hfUVvMIx9qbIe7xffdkc-24" value="&lt;b&gt;K8S&lt;/b&gt;" style="text;html=1;strokeColor=none;fillColor=none;align=center;verticalAlign=middle;whiteSpace=wrap;rounded=0;" vertex="1" parent="1">
          <mxGeometry x="379.5" y="390" width="60" height="30" as="geometry" />
        </mxCell>
        <mxCell id="hfUVvMIx9qbIe7xffdkc-25" value="Actor" style="shape=umlActor;verticalLabelPosition=bottom;verticalAlign=top;html=1;outlineConnect=0;" vertex="1" parent="1">
          <mxGeometry x="50" y="760" width="30" height="60" as="geometry" />
        </mxCell>
        <mxCell id="hfUVvMIx9qbIe7xffdkc-26" value="" style="rounded=1;whiteSpace=wrap;html=1;dashed=1;" vertex="1" parent="1">
          <mxGeometry x="240" y="700" width="460" height="190" as="geometry" />
        </mxCell>
        <mxCell id="hfUVvMIx9qbIe7xffdkc-27" value="" style="aspect=fixed;sketch=0;html=1;dashed=0;whitespace=wrap;fillColor=#2875E2;strokeColor=#ffffff;points=[[0.005,0.63,0],[0.1,0.2,0],[0.9,0.2,0],[0.5,0,0],[0.995,0.63,0],[0.72,0.99,0],[0.5,1,0],[0.28,0.99,0]];shape=mxgraph.kubernetes.icon2;prIcon=pod" vertex="1" parent="1">
          <mxGeometry x="480" y="760" width="50" height="48" as="geometry" />
        </mxCell>
        <mxCell id="hfUVvMIx9qbIe7xffdkc-28" value="" style="aspect=fixed;sketch=0;html=1;dashed=0;whitespace=wrap;fillColor=#2875E2;strokeColor=#ffffff;points=[[0.005,0.63,0],[0.1,0.2,0],[0.9,0.2,0],[0.5,0,0],[0.995,0.63,0],[0.72,0.99,0],[0.5,1,0],[0.28,0.99,0]];shape=mxgraph.kubernetes.icon2;prIcon=svc" vertex="1" parent="1">
          <mxGeometry x="270" y="760" width="50" height="48" as="geometry" />
        </mxCell>
        <mxCell id="hfUVvMIx9qbIe7xffdkc-29" value="" style="aspect=fixed;sketch=0;html=1;dashed=0;whitespace=wrap;fillColor=#2875E2;strokeColor=#ffffff;points=[[0.005,0.63,0],[0.1,0.2,0],[0.9,0.2,0],[0.5,0,0],[0.995,0.63,0],[0.72,0.99,0],[0.5,1,0],[0.28,0.99,0]];shape=mxgraph.kubernetes.icon2;prIcon=ing" vertex="1" parent="1">
          <mxGeometry x="160" y="760" width="50" height="48" as="geometry" />
        </mxCell>
        <mxCell id="hfUVvMIx9qbIe7xffdkc-30" value="" style="verticalLabelPosition=bottom;html=1;verticalAlign=top;align=center;strokeColor=none;fillColor=#00BEF2;shape=mxgraph.azure.queue_generic;pointerEvents=1;" vertex="1" parent="1">
          <mxGeometry x="346.75" y="770" width="96.5" height="40" as="geometry" />
        </mxCell>
        <mxCell id="hfUVvMIx9qbIe7xffdkc-31" value="" style="aspect=fixed;sketch=0;html=1;dashed=0;whitespace=wrap;fillColor=#2875E2;strokeColor=#ffffff;points=[[0.005,0.63,0],[0.1,0.2,0],[0.9,0.2,0],[0.5,0,0],[0.995,0.63,0],[0.72,0.99,0],[0.5,1,0],[0.28,0.99,0]];shape=mxgraph.kubernetes.icon2;kubernetesLabel=1;prIcon=hpa" vertex="1" parent="1">
          <mxGeometry x="580" y="832" width="50" height="48" as="geometry" />
        </mxCell>
        <mxCell id="hfUVvMIx9qbIe7xffdkc-32" style="edgeStyle=orthogonalEdgeStyle;rounded=0;orthogonalLoop=1;jettySize=auto;html=1;exitX=0.5;exitY=0;exitDx=0;exitDy=0;exitPerimeter=0;entryX=0.5;entryY=1;entryDx=0;entryDy=0;entryPerimeter=0;" edge="1" parent="1" source="hfUVvMIx9qbIe7xffdkc-31" target="hfUVvMIx9qbIe7xffdkc-45">
          <mxGeometry relative="1" as="geometry" />
        </mxCell>
        <mxCell id="hfUVvMIx9qbIe7xffdkc-33" style="edgeStyle=orthogonalEdgeStyle;rounded=0;orthogonalLoop=1;jettySize=auto;html=1;entryX=0.5;entryY=1;entryDx=0;entryDy=0;entryPerimeter=0;" edge="1" parent="1" source="hfUVvMIx9qbIe7xffdkc-31" target="hfUVvMIx9qbIe7xffdkc-30">
          <mxGeometry relative="1" as="geometry" />
        </mxCell>
        <mxCell id="hfUVvMIx9qbIe7xffdkc-34" value="ingress" style="text;html=1;strokeColor=none;fillColor=none;align=center;verticalAlign=middle;whiteSpace=wrap;rounded=0;" vertex="1" parent="1">
          <mxGeometry x="155" y="810" width="60" height="30" as="geometry" />
        </mxCell>
        <mxCell id="hfUVvMIx9qbIe7xffdkc-35" style="edgeStyle=orthogonalEdgeStyle;rounded=0;orthogonalLoop=1;jettySize=auto;html=1;entryX=0.005;entryY=0.63;entryDx=0;entryDy=0;entryPerimeter=0;" edge="1" parent="1" source="hfUVvMIx9qbIe7xffdkc-25" target="hfUVvMIx9qbIe7xffdkc-29">
          <mxGeometry relative="1" as="geometry" />
        </mxCell>
        <mxCell id="hfUVvMIx9qbIe7xffdkc-36" style="edgeStyle=orthogonalEdgeStyle;rounded=0;orthogonalLoop=1;jettySize=auto;html=1;exitX=0.995;exitY=0.63;exitDx=0;exitDy=0;exitPerimeter=0;entryX=0.005;entryY=0.63;entryDx=0;entryDy=0;entryPerimeter=0;" edge="1" parent="1" source="hfUVvMIx9qbIe7xffdkc-29" target="hfUVvMIx9qbIe7xffdkc-28">
          <mxGeometry relative="1" as="geometry" />
        </mxCell>
        <mxCell id="hfUVvMIx9qbIe7xffdkc-37" value="LB" style="text;html=1;strokeColor=none;fillColor=none;align=center;verticalAlign=middle;whiteSpace=wrap;rounded=0;" vertex="1" parent="1">
          <mxGeometry x="265" y="808" width="60" height="30" as="geometry" />
        </mxCell>
        <mxCell id="hfUVvMIx9qbIe7xffdkc-38" value="queue" style="text;html=1;strokeColor=none;fillColor=none;align=center;verticalAlign=middle;whiteSpace=wrap;rounded=0;" vertex="1" parent="1">
          <mxGeometry x="365" y="734" width="60" height="30" as="geometry" />
        </mxCell>
        <mxCell id="hfUVvMIx9qbIe7xffdkc-39" style="edgeStyle=orthogonalEdgeStyle;rounded=0;orthogonalLoop=1;jettySize=auto;html=1;exitX=0.995;exitY=0.63;exitDx=0;exitDy=0;exitPerimeter=0;entryX=0;entryY=0.5;entryDx=0;entryDy=0;entryPerimeter=0;" edge="1" parent="1" source="hfUVvMIx9qbIe7xffdkc-28" target="hfUVvMIx9qbIe7xffdkc-30">
          <mxGeometry relative="1" as="geometry" />
        </mxCell>
        <mxCell id="hfUVvMIx9qbIe7xffdkc-40" style="edgeStyle=orthogonalEdgeStyle;rounded=0;orthogonalLoop=1;jettySize=auto;html=1;exitX=1;exitY=0.51;exitDx=0;exitDy=0;exitPerimeter=0;entryX=0.005;entryY=0.63;entryDx=0;entryDy=0;entryPerimeter=0;" edge="1" parent="1" source="hfUVvMIx9qbIe7xffdkc-30" target="hfUVvMIx9qbIe7xffdkc-27">
          <mxGeometry relative="1" as="geometry" />
        </mxCell>
        <mxCell id="hfUVvMIx9qbIe7xffdkc-43" value="&lt;b&gt;&lt;font style=&quot;font-size: 14px;&quot;&gt;K8S&lt;/font&gt;&lt;/b&gt;" style="text;html=1;strokeColor=none;fillColor=none;align=center;verticalAlign=middle;whiteSpace=wrap;rounded=0;" vertex="1" parent="1">
          <mxGeometry x="443.5" y="700" width="60" height="30" as="geometry" />
        </mxCell>
        <mxCell id="hfUVvMIx9qbIe7xffdkc-45" value="" style="aspect=fixed;sketch=0;html=1;dashed=0;whitespace=wrap;fillColor=#2875E2;strokeColor=#ffffff;points=[[0.005,0.63,0],[0.1,0.2,0],[0.9,0.2,0],[0.5,0,0],[0.995,0.63,0],[0.72,0.99,0],[0.5,1,0],[0.28,0.99,0]];shape=mxgraph.kubernetes.icon2;prIcon=pod" vertex="1" parent="1">
          <mxGeometry x="580" y="760" width="50" height="48" as="geometry" />
        </mxCell>
        <mxCell id="hfUVvMIx9qbIe7xffdkc-47" style="edgeStyle=orthogonalEdgeStyle;rounded=0;orthogonalLoop=1;jettySize=auto;html=1;exitX=0.995;exitY=0.63;exitDx=0;exitDy=0;exitPerimeter=0;entryX=0.005;entryY=0.63;entryDx=0;entryDy=0;entryPerimeter=0;startArrow=classic;startFill=1;" edge="1" parent="1" source="hfUVvMIx9qbIe7xffdkc-27" target="hfUVvMIx9qbIe7xffdkc-45">
          <mxGeometry relative="1" as="geometry" />
        </mxCell>
        <mxCell id="hfUVvMIx9qbIe7xffdkc-48" value="cache-service" style="text;html=1;strokeColor=none;fillColor=none;align=center;verticalAlign=middle;whiteSpace=wrap;rounded=0;" vertex="1" parent="1">
          <mxGeometry x="457.5" y="730" width="95" height="30" as="geometry" />
        </mxCell>
        <mxCell id="hfUVvMIx9qbIe7xffdkc-49" value="kserve" style="text;html=1;strokeColor=none;fillColor=none;align=center;verticalAlign=middle;whiteSpace=wrap;rounded=0;" vertex="1" parent="1">
          <mxGeometry x="575" y="730" width="60" height="30" as="geometry" />
        </mxCell>
        <mxCell id="hfUVvMIx9qbIe7xffdkc-51" value="Actor" style="shape=umlActor;verticalLabelPosition=bottom;verticalAlign=top;html=1;outlineConnect=0;" vertex="1" parent="1">
          <mxGeometry x="45" y="170" width="30" height="60" as="geometry" />
        </mxCell>
        <mxCell id="hfUVvMIx9qbIe7xffdkc-52" value="" style="rounded=1;whiteSpace=wrap;html=1;dashed=1;" vertex="1" parent="1">
          <mxGeometry x="235" y="130" width="185" height="140" as="geometry" />
        </mxCell>
        <mxCell id="hfUVvMIx9qbIe7xffdkc-53" value="" style="aspect=fixed;sketch=0;html=1;dashed=0;whitespace=wrap;fillColor=#2875E2;strokeColor=#ffffff;points=[[0.005,0.63,0],[0.1,0.2,0],[0.9,0.2,0],[0.5,0,0],[0.995,0.63,0],[0.72,0.99,0],[0.5,1,0],[0.28,0.99,0]];shape=mxgraph.kubernetes.icon2;prIcon=pod" vertex="1" parent="1">
          <mxGeometry x="346.75" y="170" width="50" height="48" as="geometry" />
        </mxCell>
        <mxCell id="hfUVvMIx9qbIe7xffdkc-54" value="" style="aspect=fixed;sketch=0;html=1;dashed=0;whitespace=wrap;fillColor=#2875E2;strokeColor=#ffffff;points=[[0.005,0.63,0],[0.1,0.2,0],[0.9,0.2,0],[0.5,0,0],[0.995,0.63,0],[0.72,0.99,0],[0.5,1,0],[0.28,0.99,0]];shape=mxgraph.kubernetes.icon2;prIcon=svc" vertex="1" parent="1">
          <mxGeometry x="265" y="170" width="50" height="48" as="geometry" />
        </mxCell>
        <mxCell id="hfUVvMIx9qbIe7xffdkc-55" value="" style="aspect=fixed;sketch=0;html=1;dashed=0;whitespace=wrap;fillColor=#2875E2;strokeColor=#ffffff;points=[[0.005,0.63,0],[0.1,0.2,0],[0.9,0.2,0],[0.5,0,0],[0.995,0.63,0],[0.72,0.99,0],[0.5,1,0],[0.28,0.99,0]];shape=mxgraph.kubernetes.icon2;prIcon=ing" vertex="1" parent="1">
          <mxGeometry x="155" y="170" width="50" height="48" as="geometry" />
        </mxCell>
        <mxCell id="hfUVvMIx9qbIe7xffdkc-60" value="ingress" style="text;html=1;strokeColor=none;fillColor=none;align=center;verticalAlign=middle;whiteSpace=wrap;rounded=0;" vertex="1" parent="1">
          <mxGeometry x="150" y="220" width="60" height="30" as="geometry" />
        </mxCell>
        <mxCell id="hfUVvMIx9qbIe7xffdkc-61" style="edgeStyle=orthogonalEdgeStyle;rounded=0;orthogonalLoop=1;jettySize=auto;html=1;entryX=0.005;entryY=0.63;entryDx=0;entryDy=0;entryPerimeter=0;" edge="1" parent="1" source="hfUVvMIx9qbIe7xffdkc-51" target="hfUVvMIx9qbIe7xffdkc-55">
          <mxGeometry relative="1" as="geometry" />
        </mxCell>
        <mxCell id="hfUVvMIx9qbIe7xffdkc-62" style="edgeStyle=orthogonalEdgeStyle;rounded=0;orthogonalLoop=1;jettySize=auto;html=1;exitX=0.995;exitY=0.63;exitDx=0;exitDy=0;exitPerimeter=0;entryX=0.005;entryY=0.63;entryDx=0;entryDy=0;entryPerimeter=0;" edge="1" parent="1" source="hfUVvMIx9qbIe7xffdkc-55" target="hfUVvMIx9qbIe7xffdkc-54">
          <mxGeometry relative="1" as="geometry" />
        </mxCell>
        <mxCell id="hfUVvMIx9qbIe7xffdkc-63" value="LB" style="text;html=1;strokeColor=none;fillColor=none;align=center;verticalAlign=middle;whiteSpace=wrap;rounded=0;" vertex="1" parent="1">
          <mxGeometry x="260" y="218" width="60" height="30" as="geometry" />
        </mxCell>
        <mxCell id="hfUVvMIx9qbIe7xffdkc-65" style="edgeStyle=orthogonalEdgeStyle;rounded=0;orthogonalLoop=1;jettySize=auto;html=1;exitX=0.995;exitY=0.63;exitDx=0;exitDy=0;exitPerimeter=0;entryX=0;entryY=0.5;entryDx=0;entryDy=0;entryPerimeter=0;" edge="1" parent="1" source="hfUVvMIx9qbIe7xffdkc-54">
          <mxGeometry relative="1" as="geometry">
            <mxPoint x="341.75" y="200" as="targetPoint" />
          </mxGeometry>
        </mxCell>
        <mxCell id="hfUVvMIx9qbIe7xffdkc-68" value="&lt;b&gt;K8S&lt;/b&gt;" style="text;html=1;strokeColor=none;fillColor=none;align=center;verticalAlign=middle;whiteSpace=wrap;rounded=0;" vertex="1" parent="1">
          <mxGeometry x="297.5" y="130" width="60" height="30" as="geometry" />
        </mxCell>
        <mxCell id="hfUVvMIx9qbIe7xffdkc-69" value="kserve" style="text;html=1;strokeColor=none;fillColor=none;align=center;verticalAlign=middle;whiteSpace=wrap;rounded=0;" vertex="1" parent="1">
          <mxGeometry x="341.75" y="220" width="60" height="30" as="geometry" />
        </mxCell>
        <mxCell id="hfUVvMIx9qbIe7xffdkc-70" value="kserve" style="text;html=1;strokeColor=none;fillColor=none;align=center;verticalAlign=middle;whiteSpace=wrap;rounded=0;" vertex="1" parent="1">
          <mxGeometry x="484.5" y="420" width="60" height="30" as="geometry" />
        </mxCell>
        <mxCell id="hfUVvMIx9qbIe7xffdkc-72" value="&lt;h1&gt;&lt;span style=&quot;font-size: 14px;&quot;&gt;CACHE&lt;/span&gt;&lt;/h1&gt;&lt;p&gt;Самый лучший способ ускорить вычисления – не совершать их вообще. Для&amp;nbsp;&lt;span style=&quot;background-color: initial;&quot;&gt;этого есть кэш. Он также позволяет ускорить обращение к данным, используя&amp;nbsp;&lt;/span&gt;&lt;span style=&quot;background-color: initial;&quot;&gt;более быстрые хранилища.&lt;/span&gt;&lt;/p&gt;" style="text;html=1;strokeColor=none;fillColor=none;spacing=5;spacingTop=-20;whiteSpace=wrap;overflow=hidden;rounded=0;" vertex="1" parent="1">
          <mxGeometry x="710" y="724" width="190" height="166" as="geometry" />
        </mxCell>
      </root>
    </mxGraphModel>
  </diagram>
</mxfile>
